# xmcd
#
# Track frame offsets:
# 150
# 11247
# 21425
# 33360
# 45292
# 60257
# 74057
# 88007
# 106822
# 121370
# 133700
# 149185
# 162820
# 175645
#
# Disc length: 2517 seconds
#
#
# Revision: 0
# Processed by: cddbd v1.5.2PL0 Copyright (c) Steve Scherf et al.
# Submitted via: FreeRIP 2.945 
#
DISCID=bf09d30e
DTITLE=Aretha Franklin - Aretha Franklin
DYEAR=1992
DGENRE=Blues
TTITLE0=Rock-a-bye your baby with a Dixie Melody
TTITLE1=Cry like a baby
TTITLE2=One step ahead
TTITLE3=Runnin' out of fools
TTITLE4=Try a little tenderness
TTITLE5=Sweet bitter love
TTITLE6=God bless the child
TTITLE7=If ever I would leave you
TTITLE8=Won't be long
TTITLE9=Love is the only thing
TTITLE10=Sweet lover
TTITLE11=All night long
TTITLE12=Who needs you
TTITLE13=It ain't necessarily so
EXTD=Columbia
EXTT0=
EXTT1=
EXTT2=
EXTT3=
EXTT4=
EXTT5=
EXTT6=
EXTT7=
EXTT8=
EXTT9=
EXTT10=
EXTT11=
EXTT12=
EXTT13=
PLAYORDER=
